<svg xmlns="http://www.w3.org/2000/svg" width="100%" viewBox="0 0 24 24" fill="#c2c2c2" class="nm-tools-icon is-gray"><g opacity="0.5"><mask id="mask0_2001_140" style="mask-type:alpha" maskUnits="userSpaceOnUse" x="0" y="0" width="24" height="24"><rect width="24" height="24" fill="#c2c2c2"></rect></mask><g mask="url(#mask0_2001_140)"><path d="M11.2502 12.75V16C11.2502 16.2128 11.3221 16.391 11.4657 16.5345C11.6092 16.6782 11.7874 16.75 12.0002 16.75C12.2131 16.75 12.3912 16.6782 12.5347 16.5345C12.6784 16.391 12.7502 16.2128 12.7502 16V12.75H16.0002C16.2131 12.75 16.3912 12.6782 16.5347 12.5345C16.6784 12.391 16.7502 12.2128 16.7502 12C16.7502 11.7872 16.6784 11.609 16.5347 11.4655C16.3912 11.3218 16.2131 11.25 16.0002 11.25H12.7502V8C12.7502 7.78717 12.6784 7.609 12.5347 7.4655C12.3912 7.32183 12.2131 7.25 12.0002 7.25C11.7874 7.25 11.6092 7.32183 11.4657 7.4655C11.3221 7.609 11.2502 7.78717 11.2502 8V11.25H8.00024C7.78741 11.25 7.60924 11.3218 7.46574 11.4655C7.32208 11.609 7.25024 11.7872 7.25024 12C7.25024 12.2128 7.32208 12.391 7.46574 12.5345C7.60924 12.6782 7.78741 12.75 8.00024 12.75H11.2502ZM5.30799 20.5C4.80283 20.5 4.37524 20.325 4.02524 19.975C3.67524 19.625 3.50024 19.1974 3.50024 18.6922V5.30775C3.50024 4.80258 3.67524 4.375 4.02524 4.025C4.37524 3.675 4.80283 3.5 5.30799 3.5H18.6925C19.1977 3.5 19.6252 3.675 19.9752 4.025C20.3252 4.375 20.5002 4.80258 20.5002 5.30775V18.6922C20.5002 19.1974 20.3252 19.625 19.9752 19.975C19.6252 20.325 19.1977 20.5 18.6925 20.5H5.30799ZM5.30799 19H18.6925C18.7695 19 18.84 18.9679 18.904 18.9037C18.9682 18.8397 19.0002 18.7692 19.0002 18.6922V5.30775C19.0002 5.23075 18.9682 5.16025 18.904 5.09625C18.84 5.03208 18.7695 5 18.6925 5H5.30799C5.23099 5 5.16049 5.03208 5.09649 5.09625C5.03233 5.16025 5.00024 5.23075 5.00024 5.30775V18.6922C5.00024 18.7692 5.03233 18.8397 5.09649 18.9037C5.16049 18.9679 5.23099 19 5.30799 19Z" fill="#c2c2c2"></path></g></g></svg>